<?xml version="1.0" encoding="UTF-8" standalone="no"?>
<!-- Generator: Adobe Illustrator 17.0.1, SVG Export Plug-In . SVG Version: 6.00 Build 0)  -->

<svg
   xmlns:dc="http://purl.org/dc/elements/1.1/"
   xmlns:cc="http://creativecommons.org/ns#"
   xmlns:rdf="http://www.w3.org/1999/02/22-rdf-syntax-ns#"
   xmlns:svg="http://www.w3.org/2000/svg"
   xmlns="http://www.w3.org/2000/svg"
   xmlns:sodipodi="http://sodipodi.sourceforge.net/DTD/sodipodi-0.dtd"
   xmlns:inkscape="http://www.inkscape.org/namespaces/inkscape"
   version="1.1"
   x="0px"
   y="0px"
   width="86px"
   height="86px"
   viewBox="0 0 86 86"
   enable-background="new 0 0 86 86"
   xml:space="preserve"
   id="svg2"
   inkscape:version="0.91 r13725"
   sodipodi:docname="icon-launcher-meteroid.svg"
   inkscape:export-filename="/home/gerrit/Programmieren/CPP/SailfishOS/harbour-mete/harbour-mete/icons/86x86/harbour-mete.png"
   inkscape:export-xdpi="90.629997"
   inkscape:export-ydpi="90.629997"><metadata
     id="metadata23"><rdf:RDF><cc:Work
         rdf:about=""><dc:format>image/svg+xml</dc:format><dc:type
           rdf:resource="http://purl.org/dc/dcmitype/StillImage" /><dc:title></dc:title></cc:Work></rdf:RDF></metadata><defs
     id="defs21"><linearGradient
       y2="12.8066"
       x2="73.1939"
       y1="85.2833"
       x1="0.7171"
       gradientUnits="userSpaceOnUse"
       id="SVGID_1_"><stop
         id="stop7"
         style="stop-color:#122b4c;stop-opacity:1"
         offset="0" /><stop
         id="stop9"
         style="stop-color:#3f70b6;stop-opacity:1"
         offset="0.6976" /><stop
         id="stop11"
         style="stop-color:#5086da;stop-opacity:1"
         offset="1" /></linearGradient></defs><sodipodi:namedview
     pagecolor="#ffffff"
     bordercolor="#666666"
     borderopacity="1"
     objecttolerance="10"
     gridtolerance="10"
     guidetolerance="10"
     inkscape:pageopacity="0"
     inkscape:pageshadow="2"
     inkscape:window-width="1916"
     inkscape:window-height="1041"
     id="namedview19"
     showgrid="true"
     showguides="true"
     inkscape:zoom="7.7617302"
     inkscape:cx="27.603666"
     inkscape:cy="30.191985"
     inkscape:window-x="1920"
     inkscape:window-y="389"
     inkscape:window-maximized="0"
     inkscape:current-layer="svg2"
     inkscape:guide-bbox="true"
     inkscape:snap-bbox="false"
     inkscape:bbox-nodes="true"
     inkscape:snap-bbox-edge-midpoints="true"><sodipodi:guide
       position="50,43"
       orientation="0,1"
       id="guide3406"
       inkscape:label=""
       inkscape:color="rgb(0,0,255)" /><sodipodi:guide
       position="43,62.614905"
       orientation="1,0"
       id="guide3408"
       inkscape:label=""
       inkscape:color="rgb(0,0,255)" /></sodipodi:namedview><g
     id="Layer_2"
     display="none" /><path
     inkscape:connector-curvature="0"
     style="fill:url(#SVGID_1_);stroke:none"
     id="path13"
     d="M 43,0.3 C 19.418,0.3 0.3,19.418 0.3,43 l 0,41.277 c 0,0.786 0.637,1.423 1.423,1.423 L 43,85.7 C 66.585,85.7 85.7,66.582 85.7,43 85.7,19.418 66.585,0.3 43,0.3 Z" /><path
     inkscape:connector-curvature="0"
     id="path5422"
     d="M 39.023542,67.363869 C 34.131551,67.25003 32.111693,66.978796 31.191533,66.312231 30.67234,65.93613 30.715798,66.181342 30.066488,59.964176 28.790581,47.747278 28.67252,46.571991 28.711104,46.471441 c 0.03384,-0.08819 0.188515,-0.105146 1.009808,-0.110685 0,0 9.245331,-0.186583 17.76664,-0.113862 6.387625,0.05377 9.897813,0.119215 10.006815,0.186581 0.06496,0.04014 -0.167826,2.063019 -1.07697,9.358702 -0.637914,5.119116 -1.191105,9.46627 -1.229313,9.660347 -0.233854,1.187827 -1.800771,1.719305 -6.257058,1.911345 -2.183946,0.0941 -7.321004,0.06019 -9.907484,0 z"
     style="display:inline;opacity:1;fill:#f8cd33;fill-opacity:1"
     sodipodi:nodetypes="ssssccsssss" /><circle
     style="color:#000000;clip-rule:nonzero;display:inline;overflow:visible;visibility:visible;opacity:1;isolation:auto;mix-blend-mode:normal;color-interpolation:sRGB;color-interpolation-filters:linearRGB;solid-color:#000000;solid-opacity:1;fill:none;fill-opacity:1;fill-rule:nonzero;stroke:#f8a81a;stroke-width:2.44825172;stroke-linecap:round;stroke-linejoin:miter;stroke-miterlimit:4;stroke-dasharray:none;stroke-dashoffset:0;stroke-opacity:1;color-rendering:auto;image-rendering:auto;shape-rendering:auto;text-rendering:auto;enable-background:accumulate"
     id="path5362-5"
     cx="51.011459"
     cy="31.2253"
     r="6.0235515" /><circle
     style="color:#000000;clip-rule:nonzero;display:inline;overflow:visible;visibility:visible;opacity:1;isolation:auto;mix-blend-mode:normal;color-interpolation:sRGB;color-interpolation-filters:linearRGB;solid-color:#000000;solid-opacity:1;fill:none;fill-opacity:1;fill-rule:nonzero;stroke:#f8a81a;stroke-width:2.44819212;stroke-linecap:round;stroke-linejoin:miter;stroke-miterlimit:4;stroke-dasharray:none;stroke-dashoffset:0;stroke-opacity:1;color-rendering:auto;image-rendering:auto;shape-rendering:auto;text-rendering:auto;enable-background:accumulate"
     id="path5362-9"
     cx="37.490261"
     cy="45.671673"
     r="6.0234041" /><circle
     style="color:#000000;clip-rule:nonzero;display:inline;overflow:visible;visibility:visible;opacity:1;isolation:auto;mix-blend-mode:normal;color-interpolation:sRGB;color-interpolation-filters:linearRGB;solid-color:#000000;solid-opacity:1;fill:none;fill-opacity:1;fill-rule:nonzero;stroke:#f8a81a;stroke-width:2.44819188;stroke-linecap:round;stroke-linejoin:miter;stroke-miterlimit:4;stroke-dasharray:none;stroke-dashoffset:0;stroke-opacity:1;color-rendering:auto;image-rendering:auto;shape-rendering:auto;text-rendering:auto;enable-background:accumulate"
     id="path5362-5-3"
     cx="34.52821"
     cy="20.550854"
     r="6.0234041" /><path
     style="display:inline;opacity:1;fill:#ffffff;stroke:#ffffff;stroke-width:1.044;stroke-miterlimit:4;stroke-dasharray:none;stroke-opacity:1"
     d="m 36.896406,71.10969 c -6.283907,-0.307078 -9.235631,-1.116756 -9.636554,-2.643379 -0.03628,-0.138157 -0.461709,-3.58329 -0.945391,-7.655859 -2.604139,-21.926575 -4.452206,-37.46808 -4.543471,-38.208745 -0.143596,-1.16537 -0.134714,-1.625794 0.03679,-1.907087 0.756525,-1.240811 5.796411,-2.030787 15.263265,-2.392432 2.279023,-0.08706 9.322736,-0.08602 11.770613,0.0017 7.704586,0.276219 13.330498,0.993315 14.769299,1.882542 0.315204,0.194807 0.654606,0.586569 0.714932,0.825228 0.02739,0.108322 -0.107806,1.504553 -0.312694,3.229526 -0.847836,7.137987 -3.376559,28.404752 -4.276496,35.965613 -0.737609,6.197063 -1.007228,8.268759 -1.104585,8.487423 -0.62,1.392511 -3.481195,2.104711 -9.720601,2.419624 -1.555869,0.07853 -10.385436,0.07545 -12.015107,-0.0041 z m 12.11989,-1.531182 c 3.560244,-0.188067 5.960785,-0.515533 7.281898,-0.993342 1.040913,-0.376476 0.845908,0.424569 1.748122,-7.180944 0.4307,-3.630724 1.64834,-13.877727 2.705865,-22.771112 1.057526,-8.893386 1.942244,-16.379275 1.96604,-16.635306 0.04114,-0.442661 0.03462,-0.471172 -0.132653,-0.580779 -0.09675,-0.06339 -0.533177,-0.205279 -0.969825,-0.315297 -2.456003,-0.618809 -6.941271,-1.054463 -13.053506,-1.267886 -2.632643,-0.09193 -10.941936,-0.04652 -13.237574,0.07234 -5.223197,0.27043 -9.289651,0.725568 -11.266731,1.261029 -0.995679,0.269663 -0.997458,-0.748723 0.01354,7.755246 1.875041,15.771835 3.965718,33.348871 4.295561,36.114246 0.19018,1.594449 0.365983,2.950753 0.390672,3.014014 0.02469,0.06327 0.22375,0.210349 0.442354,0.326867 1.263232,0.673293 4.527276,1.106569 9.58244,1.271987 2.095822,0.06858 8.421857,0.02465 10.233797,-0.07107 z"
     id="path5410-2"
     inkscape:connector-curvature="0" /></svg>